
<svg width="18px" height="16px" viewBox="0 0 18 16" version="1.1" xmlns="http://www.w3.org/2000/svg" xmlns:xlink="http://www.w3.org/1999/xlink">
    <defs></defs>
    <g id="Sprint-#105" stroke="none" stroke-width="1" fill="none" fill-rule="evenodd">
        <g id="Topic_page" transform="translate(-1232.000000, -1849.000000)" fill="#45C2F0" fill-rule="nonzero">
            <g id="Group-3" transform="translate(1032.000000, 1721.000000)">
                <g id="externalLink" transform="translate(200.000000, 128.000000)">
                    <path d="M14.1428571,9.32142857 L14.1428571,12.5357143 C14.1428571,13.3325893 13.859933,14.0139509 13.2940848,14.5797991 C12.7282366,15.1456473 12.046875,15.4285714 11.25,15.4285714 L2.89285714,15.4285714 C2.09598214,15.4285714 1.41462054,15.1456473 0.848772321,14.5797991 C0.282924107,14.0139509 0,13.3325893 0,12.5357143 L0,4.17857143 C0,3.38169643 0.282924107,2.70033482 0.848772321,2.13448661 C1.41462054,1.56863839 2.09598214,1.28571429 2.89285714,1.28571429 L9.96428571,1.28571429 C10.0580357,1.28571429 10.1350446,1.31584821 10.1953125,1.37611607 C10.2555804,1.43638393 10.2857143,1.51339286 10.2857143,1.60714286 L10.2857143,2.25 C10.2857143,2.34375 10.2555804,2.42075893 10.1953125,2.48102679 C10.1350446,2.54129464 10.0580357,2.57142857 9.96428571,2.57142857 L2.89285714,2.57142857 C2.45089286,2.57142857 2.07254464,2.72879464 1.7578125,3.04352679 C1.44308036,3.35825893 1.28571429,3.73660714 1.28571429,4.17857143 L1.28571429,12.5357143 C1.28571429,12.9776786 1.44308036,13.3560268 1.7578125,13.6707589 C2.07254464,13.9854911 2.45089286,14.1428571 2.89285714,14.1428571 L11.25,14.1428571 C11.6919643,14.1428571 12.0703125,13.9854911 12.3850446,13.6707589 C12.6997768,13.3560268 12.8571429,12.9776786 12.8571429,12.5357143 L12.8571429,9.32142857 C12.8571429,9.22767857 12.8872768,9.15066964 12.9475446,9.09040179 C13.0078125,9.03013393 13.0848214,9 13.1785714,9 L13.8214286,9 C13.9151786,9 13.9921875,9.03013393 14.0524554,9.09040179 C14.1127232,9.15066964 14.1428571,9.22767857 14.1428571,9.32142857 Z M18,0.642857143 L18,5.78571429 C18,5.95982143 17.9363839,6.11049107 17.8091518,6.23772321 C17.6819196,6.36495536 17.53125,6.42857143 17.3571429,6.42857143 C17.1830357,6.42857143 17.0323661,6.36495536 16.9051339,6.23772321 L15.1372768,4.46986607 L8.58816964,11.0189732 C8.52120536,11.0859375 8.44419643,11.1194196 8.35714286,11.1194196 C8.27008929,11.1194196 8.19308036,11.0859375 8.12611607,11.0189732 L6.98102679,9.87388393 C6.9140625,9.80691964 6.88058036,9.72991071 6.88058036,9.64285714 C6.88058036,9.55580357 6.9140625,9.47879464 6.98102679,9.41183036 L13.5301339,2.86272321 L11.7622768,1.09486607 C11.6350446,0.967633929 11.5714286,0.816964286 11.5714286,0.642857143 C11.5714286,0.46875 11.6350446,0.318080357 11.7622768,0.190848214 C11.8895089,0.0636160714 12.0401786,0 12.2142857,0 L17.3571429,0 C17.53125,0 17.6819196,0.0636160714 17.8091518,0.190848214 C17.9363839,0.318080357 18,0.46875 18,0.642857143 Z" id="Shape"></path>
                    <path d="M14.1428571,9.32142857 L14.1428571,12.5357143 C14.1428571,13.3325893 13.859933,14.0139509 13.2940848,14.5797991 C12.7282366,15.1456473 12.046875,15.4285714 11.25,15.4285714 L2.89285714,15.4285714 C2.09598214,15.4285714 1.41462054,15.1456473 0.848772321,14.5797991 C0.282924107,14.0139509 0,13.3325893 0,12.5357143 L0,4.17857143 C0,3.38169643 0.282924107,2.70033482 0.848772321,2.13448661 C1.41462054,1.56863839 2.09598214,1.28571429 2.89285714,1.28571429 L9.96428571,1.28571429 C10.0580357,1.28571429 10.1350446,1.31584821 10.1953125,1.37611607 C10.2555804,1.43638393 10.2857143,1.51339286 10.2857143,1.60714286 L10.2857143,2.25 C10.2857143,2.34375 10.2555804,2.42075893 10.1953125,2.48102679 C10.1350446,2.54129464 10.0580357,2.57142857 9.96428571,2.57142857 L2.89285714,2.57142857 C2.45089286,2.57142857 2.07254464,2.72879464 1.7578125,3.04352679 C1.44308036,3.35825893 1.28571429,3.73660714 1.28571429,4.17857143 L1.28571429,12.5357143 C1.28571429,12.9776786 1.44308036,13.3560268 1.7578125,13.6707589 C2.07254464,13.9854911 2.45089286,14.1428571 2.89285714,14.1428571 L11.25,14.1428571 C11.6919643,14.1428571 12.0703125,13.9854911 12.3850446,13.6707589 C12.6997768,13.3560268 12.8571429,12.9776786 12.8571429,12.5357143 L12.8571429,9.32142857 C12.8571429,9.22767857 12.8872768,9.15066964 12.9475446,9.09040179 C13.0078125,9.03013393 13.0848214,9 13.1785714,9 L13.8214286,9 C13.9151786,9 13.9921875,9.03013393 14.0524554,9.09040179 C14.1127232,9.15066964 14.1428571,9.22767857 14.1428571,9.32142857 Z M18,0.642857143 L18,5.78571429 C18,5.95982143 17.9363839,6.11049107 17.8091518,6.23772321 C17.6819196,6.36495536 17.53125,6.42857143 17.3571429,6.42857143 C17.1830357,6.42857143 17.0323661,6.36495536 16.9051339,6.23772321 L15.1372768,4.46986607 L8.58816964,11.0189732 C8.52120536,11.0859375 8.44419643,11.1194196 8.35714286,11.1194196 C8.27008929,11.1194196 8.19308036,11.0859375 8.12611607,11.0189732 L6.98102679,9.87388393 C6.9140625,9.80691964 6.88058036,9.72991071 6.88058036,9.64285714 C6.88058036,9.55580357 6.9140625,9.47879464 6.98102679,9.41183036 L13.5301339,2.86272321 L11.7622768,1.09486607 C11.6350446,0.967633929 11.5714286,0.816964286 11.5714286,0.642857143 C11.5714286,0.46875 11.6350446,0.318080357 11.7622768,0.190848214 C11.8895089,0.0636160714 12.0401786,0 12.2142857,0 L17.3571429,0 C17.53125,0 17.6819196,0.0636160714 17.8091518,0.190848214 C17.9363839,0.318080357 18,0.46875 18,0.642857143 Z" id="Shape"></path>
                </g>
            </g>
        </g>
    </g>
</svg>